<?xml version="1.0" encoding="UTF-8" standalone="no"?>
<!DOCTYPE svg PUBLIC "-//W3C//DTD SVG 1.1//EN" "http://www.w3.org/Graphics/SVG/1.1/DTD/svg11.dtd">
<svg xmlns="http://www.w3.org/2000/svg" version="1.1" viewBox="0.00 0.00 832.00 1248.00">
<path fill="#2a2c29" d="
  M 356.93 631.87
  L 356.55 631.39
  A 0.69 0.69 0.0 0 0 355.34 631.79
  Q 354.82 638.48 354.28 639.88
  A 4.53 4.35 55.9 0 0 353.99 641.57
  C 354.10 645.32 352.91 649.75 352.95 653.93
  Q 352.98 656.82 352.38 658.72
  C 351.65 661.05 352.46 663.81 351.61 665.92
  C 350.64 668.34 351.21 671.31 350.69 673.96
  Q 349.79 678.58 350.03 682.03
  C 350.24 685.04 348.84 687.54 349.01 690.81
  Q 349.13 692.94 348.63 694.67
  Q 347.92 697.18 348.03 702.72
  A 5.16 5.09 -34.9 0 1 347.66 704.73
  C 346.55 707.45 347.39 712.19 346.54 715.39
  C 345.80 718.12 346.04 722.62 345.64 726.54
  C 343.83 744.17 341.11 762.63 339.16 780.39
  C 338.13 789.84 336.38 799.24 334.87 808.15
  A 1.46 1.46 0.0 0 1 332.84 809.24
  Q 325.90 806.19 317.95 804.77
  C 311.96 803.70 305.22 804.27 299.82 803.54
  A 1.35 0.98 39.8 0 0 299.51 803.52
  L 289.06 804.03
  A 14.53 13.62 -50.2 0 0 286.89 804.30
  Q 283.58 804.95 274.50 806.27
  Q 269.47 807.00 268.14 807.01
  Q 265.43 807.03 261.77 807.61
  Q 255.57 808.59 248.13 807.85
  A 5.01 4.99 -30.4 0 1 246.78 807.50
  Q 245.36 806.90 243.84 807.00
  A 4.13 4.10 -36.3 0 1 242.10 806.74
  Q 240.18 805.99 237.65 805.93
  Q 237.32 805.92 237.18 805.77
  Q 237.01 805.59 236.70 805.52
  Q 228.59 803.54 223.60 797.77
  A 3.11 3.08 -56.4 0 1 223.01 794.78
  Q 226.79 783.38 228.60 777.37
  Q 229.40 774.70 237.32 743.79
  C 238.93 737.51 242.41 727.85 244.01 720.28
  C 246.63 707.95 248.86 699.42 252.83 683.98
  C 255.82 672.36 259.87 658.91 263.57 645.71
  Q 266.88 633.89 269.41 620.33
  Q 271.84 607.36 274.53 594.80
  Q 274.61 594.41 276.74 583.60
  Q 287.52 528.90 289.33 518.62
  Q 292.73 499.20 293.01 497.51
  C 295.18 484.55 299.17 468.06 301.79 454.61
  C 303.81 444.28 306.38 435.80 309.17 425.19
  Q 310.49 420.19 313.02 413.68
  Q 319.60 396.74 329.69 381.17
  Q 342.56 361.32 362.37 349.64
  Q 380.50 338.94 405.25 335.85
  C 407.45 335.58 412.00 335.74 415.03 336.30
  Q 422.84 337.74 423.66 337.91
  C 426.95 338.59 432.77 340.02 437.47 341.96
  Q 446.62 345.71 449.27 346.98
  Q 458.21 351.27 467.77 358.83
  C 470.11 360.69 472.96 364.10 474.55 365.91
  Q 491.10 384.89 499.20 408.55
  Q 502.38 417.83 506.28 431.46
  C 509.31 442.04 510.33 452.22 512.45 463.84
  Q 518.48 496.71 530.93 532.06
  Q 532.78 537.31 536.83 546.83
  C 540.81 556.19 543.19 564.26 548.07 572.92
  Q 548.11 572.99 553.06 581.90
  Q 567.02 607.05 570.71 612.57
  Q 582.90 630.84 591.81 643.19
  C 599.45 653.78 603.99 660.81 610.64 669.22
  Q 616.01 676.00 617.10 677.92
  Q 622.63 687.56 627.68 694.87
  Q 628.26 695.71 634.34 706.10
  C 639.61 715.09 646.13 725.12 650.16 733.58
  C 655.97 745.76 660.29 753.76 663.91 763.57
  Q 669.02 777.46 673.22 791.75
  Q 674.92 797.53 675.70 807.97
  Q 675.74 808.50 674.77 811.13
  A 2.84 2.80 73.2 0 1 674.38 811.87
  Q 670.46 817.21 663.41 820.36
  Q 655.34 823.96 648.82 824.17
  A 1.67 1.64 24.4 0 0 647.86 824.52
  Q 647.00 825.20 646.10 825.16
  A 1.22 1.19 -13.9 0 1 645.12 824.58
  C 642.80 820.68 640.50 817.49 638.18 813.27
  C 632.46 802.83 627.38 792.54 621.19 782.02
  Q 616.16 773.48 612.04 765.67
  C 610.37 762.50 607.59 758.19 605.68 754.46
  Q 600.23 743.81 594.30 733.32
  C 592.51 730.17 589.99 727.57 588.29 724.62
  A 1.83 1.67 -66.7 0 1 588.08 724.01
  Q 587.89 722.90 586.70 722.04
  A 1.36 1.36 0.0 0 0 584.57 723.38
  Q 587.56 740.45 592.08 755.41
  C 596.01 768.39 598.37 779.78 601.72 791.99
  Q 603.08 796.93 604.70 804.83
  Q 606.82 815.20 607.62 817.69
  Q 611.69 830.30 614.74 844.03
  C 615.64 848.08 614.50 849.02 612.02 852.09
  Q 611.00 853.35 609.27 854.70
  Q 603.57 859.12 599.94 861.69
  Q 595.37 864.92 588.42 867.49
  Q 582.11 869.81 580.84 869.96
  A 3.91 3.90 -63.0 0 0 579.34 870.45
  Q 576.52 872.04 573.84 872.05
  A 2.44 2.29 -52.0 0 0 573.13 872.16
  L 568.33 873.78
  A 1.70 1.70 0.0 0 1 566.27 872.93
  Q 562.35 865.11 557.23 853.11
  Q 556.08 850.42 555.86 849.48
  C 555.43 847.72 554.30 845.97 553.83 844.71
  C 549.77 833.81 544.42 823.24 540.07 812.51
  Q 537.23 805.50 525.55 779.03
  C 520.88 768.42 517.05 757.37 512.11 747.08
  Q 510.16 743.01 507.69 737.02
  Q 502.00 723.24 496.94 712.93
  C 492.76 704.38 489.46 693.65 484.94 684.83
  Q 484.02 683.04 482.21 682.89
  A 0.74 0.74 0.0 0 0 481.46 683.38
  Q 480.91 684.90 481.35 686.63
  C 483.81 696.28 485.05 703.80 487.13 713.22
  Q 500.14 772.23 501.29 777.01
  Q 506.31 797.98 509.85 814.69
  C 512.44 826.89 515.61 837.17 517.73 848.22
  A 0.70 0.70 0.0 0 1 516.76 848.99
  Q 509.21 845.65 501.66 843.83
  C 497.24 842.76 490.44 843.13 486.91 842.79
  Q 483.33 842.44 480.21 842.89
  C 477.51 843.29 474.24 842.76 471.26 843.22
  Q 460.72 844.86 455.26 846.82
  Q 440.16 852.25 432.78 854.01
  C 431.65 854.28 430.16 855.26 428.93 855.01
  A 1.03 1.02 -62.9 0 0 427.98 855.32
  C 426.85 856.54 424.77 855.74 423.38 856.69
  C 422.69 857.17 420.68 857.01 419.22 857.26
  Q 412.16 858.45 408.22 857.90
  Q 403.95 857.31 400.00 856.80
  Q 399.43 856.73 399.00 856.36
  A 1.25 1.25 0.0 0 0 398.06 856.08
  C 396.48 856.26 396.02 855.08 394.71 855.07
  Q 393.98 855.06 393.11 854.63
  Q 388.32 852.22 386.32 851.24
  Q 378.55 847.44 373.70 840.31
  A 3.79 3.77 -71.4 0 1 373.22 839.34
  Q 371.77 834.77 371.74 834.70
  C 370.55 831.56 371.34 828.56 370.33 825.23
  A 5.51 5.40 36.7 0 1 370.09 823.70
  L 369.92 814.33
  A 3.86 3.83 -54.8 0 0 369.73 813.20
  L 369.34 812.06
  A 6.26 6.01 -54.5 0 1 369.03 809.95
  Q 369.25 803.87 368.59 799.78
  Q 367.82 795.00 367.97 793.19
  Q 368.24 789.91 367.72 786.53
  C 366.74 780.15 366.98 775.86 366.91 768.51
  A 1.46 1.40 36.6 0 0 366.83 768.04
  L 366.10 765.87
  A 1.28 1.06 39.6 0 1 366.05 765.61
  C 365.78 760.26 366.14 754.00 365.41 747.29
  Q 364.77 741.31 364.84 733.00
  Q 364.85 732.44 364.21 730.71
  A 3.44 3.41 35.3 0 1 363.99 729.45
  Q 364.09 723.75 363.78 718.76
  Q 363.69 717.32 363.22 716.08
  A 2.64 2.58 34.9 0 1 363.04 715.13
  C 363.03 710.45 363.29 706.19 362.30 703.70
  A 3.93 3.93 0.0 0 1 362.01 702.12
  Q 362.09 697.34 361.94 693.11
  Q 361.87 691.16 361.24 684.90
  Q 360.79 680.48 361.01 676.01
  Q 361.14 673.25 360.15 667.83
  Q 360.15 667.81 360.15 667.79
  L 358.04 634.71
  A 5.11 5.05 -66.7 0 0 356.93 631.87
  Z
  M 471.83 421.10
  C 467.02 420.36 465.43 422.90 462.70 425.24
  A 3.83 3.76 -5.4 0 0 461.90 426.19
  Q 456.74 434.84 455.36 442.35
  Q 454.41 447.53 453.21 461.02
  C 452.10 473.53 453.82 486.44 459.32 497.78
  C 461.13 501.52 464.58 505.97 467.98 506.97
  Q 472.91 508.41 475.87 505.57
  C 481.82 499.86 483.77 491.95 485.29 483.06
  Q 489.30 459.66 482.85 436.65
  Q 480.18 427.12 472.94 421.57
  A 2.39 2.34 -21.5 0 0 471.83 421.10
  Z
  M 406.96 421.29
  Q 405.30 421.74 404.47 422.68
  Q 400.97 426.62 399.54 428.37
  A 4.23 4.19 -13.8 0 0 398.91 429.40
  Q 394.50 439.52 394.15 447.09
  Q 393.87 453.22 393.27 455.48
  A 4.20 3.92 -39.2 0 0 393.12 456.57
  C 393.08 464.11 392.70 469.18 393.64 471.96
  A 4.77 4.58 38.6 0 1 393.87 473.69
  Q 393.69 477.15 395.18 487.11
  Q 396.75 497.69 403.82 505.02
  Q 407.38 508.71 412.18 506.90
  A 3.21 2.95 12.7 0 0 413.03 506.41
  Q 419.76 500.90 421.69 494.70
  Q 424.97 484.18 425.34 480.85
  Q 427.91 457.92 421.87 435.16
  Q 420.10 428.49 415.31 423.71
  C 412.70 421.11 410.34 420.37 406.96 421.29
  Z"
/>
<path fill="#2a2c29" d="
  M 204.93 726.44
  A 0.48 0.48 0.0 0 1 204.00 726.41
  C 200.66 712.12 197.72 693.96 193.60 678.40
  C 190.96 668.42 189.87 660.10 187.54 651.02
  Q 184.66 639.77 180.35 614.86
  C 178.75 605.58 175.07 591.77 173.05 580.71
  C 170.18 564.99 167.34 549.26 163.60 533.76
  Q 163.08 531.59 160.65 522.38
  Q 158.39 513.84 156.62 503.52
  C 154.65 492.06 159.49 484.63 170.21 480.84
  Q 172.82 479.92 178.88 479.90
  C 182.96 479.89 187.99 480.12 189.45 479.27
  A 2.02 2.01 30.1 0 1 190.44 479.01
  L 244.23 479.01
  A 0.92 0.91 1.2 0 1 245.15 479.96
  C 244.76 489.54 243.00 497.95 240.29 512.77
  Q 238.43 522.93 237.41 530.56
  C 234.88 549.42 234.12 556.58 231.40 571.72
  Q 229.55 581.98 228.52 590.27
  Q 226.91 603.26 225.50 610.13
  Q 223.61 619.35 221.69 629.89
  Q 220.51 636.35 219.06 649.84
  Q 218.02 659.59 214.30 677.16
  C 212.23 686.98 211.21 694.95 209.68 704.43
  Q 208.88 709.41 207.79 713.88
  C 206.95 717.35 206.27 722.10 204.93 726.44
  Z"
/>
<path fill="#2a2c29" d="
  M 413.86 864.70
  C 414.92 864.01 416.33 863.90 417.37 864.08
  A 0.74 0.74 0.0 0 1 417.98 864.81
  L 417.98 891.45
  A 1.77 1.75 -74.7 0 0 418.83 892.96
  Q 421.32 894.48 424.79 894.93
  Q 427.23 895.24 427.32 895.68
  A 0.33 0.32 -9.6 0 0 427.68 895.93
  C 428.95 895.71 430.33 896.73 431.93 897.00
  Q 435.77 897.67 437.42 898.25
  Q 439.14 898.86 443.26 899.88
  Q 446.03 900.56 447.49 901.02
  Q 451.36 902.21 454.53 902.88
  C 457.27 903.47 459.86 904.44 462.26 904.97
  Q 468.81 906.44 475.69 908.58
  Q 477.17 909.04 478.51 909.13
  A 3.58 3.43 54.4 0 1 479.20 909.26
  Q 501.57 915.69 508.89 917.34
  Q 523.17 920.58 525.64 921.32
  Q 530.92 922.91 531.86 926.59
  A 2.15 1.80 -58.3 0 1 531.91 926.94
  L 532.54 935.02
  A 2.60 2.60 0.0 0 1 530.18 937.80
  Q 527.50 938.04 517.53 937.99
  C 512.98 937.96 509.34 936.94 504.54 936.95
  A 4.71 4.68 -37.0 0 1 503.15 936.76
  Q 500.33 935.94 496.74 935.96
  A 4.89 4.85 54.4 0 1 495.03 935.67
  C 492.87 934.89 490.38 934.96 487.49 934.52
  Q 480.69 933.48 476.49 933.15
  Q 472.48 932.83 467.32 932.31
  Q 453.38 930.90 444.61 929.87
  A 3.97 3.71 -30.2 0 1 443.74 929.67
  Q 442.41 929.21 440.25 929.03
  Q 439.49 928.97 424.50 925.98
  Q 421.37 925.35 418.48 925.56
  A 1.13 1.12 0.9 0 0 417.44 926.56
  Q 416.68 933.85 415.45 941.41
  C 414.81 945.30 414.35 952.08 412.75 956.99
  C 410.97 962.44 403.62 962.12 398.75 960.97
  Q 393.25 959.68 391.47 955.05
  A 2.66 2.66 0.0 0 1 391.31 954.41
  L 387.63 925.22
  A 0.44 0.43 85.6 0 0 387.19 924.84
  Q 382.01 924.96 381.55 925.09
  C 378.47 925.98 375.89 925.95 372.65 926.65
  Q 354.13 930.63 351.62 930.91
  Q 325.38 933.91 321.51 934.49
  Q 318.21 934.99 307.09 936.77
  A 15.08 14.75 -48.1 0 1 304.48 936.94
  Q 300.39 936.86 296.59 937.39
  C 289.95 938.31 282.97 937.98 276.50 937.95
  Q 273.49 937.94 272.23 937.19
  A 1.15 1.14 13.6 0 1 271.67 936.28
  C 271.23 930.79 271.17 924.48 277.21 922.23
  Q 287.02 918.59 293.70 917.23
  Q 301.02 915.73 304.51 915.04
  Q 307.47 914.46 310.99 913.29
  C 320.12 910.26 331.34 907.58 349.85 902.95
  C 353.76 901.97 360.65 899.62 365.95 898.76
  A 1.97 1.91 -66.2 0 0 366.76 898.43
  Q 367.15 898.16 367.51 898.09
  Q 370.74 897.52 375.26 896.30
  Q 379.03 895.29 381.64 894.71
  Q 382.85 894.43 385.18 893.13
  A 2.95 2.93 77.3 0 0 386.68 890.74
  Q 386.91 887.14 386.50 884.85
  C 385.68 880.25 386.41 876.08 385.13 871.97
  A 3.77 3.38 38.3 0 1 384.95 870.92
  L 384.71 859.62
  A 0.88 0.88 0.0 0 1 386.09 858.88
  C 387.55 859.88 389.63 860.37 391.24 861.53
  Q 391.88 861.99 392.97 862.15
  Q 394.30 862.35 396.13 863.24
  Q 397.70 864.00 400.09 864.09
  A 1.33 1.33 0.0 0 1 400.99 864.49
  Q 401.09 864.60 401.24 864.78
  A 0.61 0.58 68.1 0 0 401.68 864.98
  L 412.94 864.98
  A 1.67 1.64 -61.4 0 0 413.86 864.70
  Z"
/>
<path fill="#2a2c29" d="
  M 518.24 985.73
  Q 511.32 982.33 509.05 980.00
  C 500.15 970.84 499.81 955.82 509.23 946.82
  Q 515.62 940.71 523.48 941.42
  Q 532.81 942.26 538.04 947.31
  Q 541.89 951.04 544.74 957.95
  A 3.75 3.38 -63.9 0 1 544.98 958.79
  L 545.80 964.06
  A 2.44 2.40 44.5 0 1 545.81 964.64
  Q 544.29 976.65 535.08 982.80
  Q 531.71 985.05 527.48 985.80
  Q 524.74 986.29 519.24 985.99
  A 2.53 2.35 57.4 0 1 518.24 985.73
  Z"
/>
<ellipse fill="#2a2c29" cx="0.00" cy="0.00" transform="translate(280.76,963.85) rotate(-91.7)" rx="22.60" ry="21.53"/>
</svg>
