<?xml version="1.0" encoding="UTF-8" standalone="no"?>
<!DOCTYPE svg PUBLIC "-//W3C//DTD SVG 1.1//EN" "http://www.w3.org/Graphics/SVG/1.1/DTD/svg11.dtd">
<svg xmlns="http://www.w3.org/2000/svg" version="1.1" viewBox="0.00 0.00 832.00 1248.00">
<path fill="#e5e3d5" d="
  M 517.61 847.91
  A 0.46 0.46 0.0 0 1 517.07 848.57
  Q 512.91 847.32 508.20 845.56
  C 505.37 844.49 500.01 843.11 496.04 842.69
  Q 479.16 840.89 463.20 844.40
  Q 460.64 844.96 445.43 849.87
  Q 441.70 851.08 437.35 852.26
  C 426.62 855.19 414.57 858.38 403.54 856.84
  Q 389.78 854.91 378.86 846.08
  C 376.13 843.88 373.40 840.46 372.66 837.82
  Q 371.58 833.99 370.97 832.29
  A 6.72 6.63 -58.0 0 1 370.60 830.64
  C 369.98 823.98 369.41 820.51 369.39 815.44
  Q 369.37 808.06 367.82 788.99
  Q 367.61 786.37 367.42 775.66
  A 9.25 8.86 -52.7 0 0 367.21 773.81
  Q 366.83 772.00 366.80 771.23
  C 366.18 756.86 364.82 744.88 364.41 731.07
  Q 364.12 721.51 363.53 715.48
  Q 363.34 713.44 363.19 712.07
  Q 362.40 704.81 362.20 694.59
  Q 362.04 686.71 361.62 681.69
  C 361.21 676.70 361.76 669.66 360.90 664.46
  Q 360.88 664.30 359.80 649.70
  C 359.18 641.25 359.18 633.23 358.00 624.75
  Q 357.35 620.03 357.71 614.98
  A 1.05 1.04 -85.9 0 0 356.75 613.86
  L 356.65 613.85
  A 0.95 0.95 0.0 0 0 355.62 614.78
  C 355.56 619.66 354.67 624.78 354.27 628.51
  Q 350.56 663.30 350.09 669.00
  Q 348.43 689.21 347.52 697.50
  Q 345.12 719.62 344.74 726.14
  C 344.51 730.29 343.50 734.25 343.36 738.73
  Q 343.29 740.88 342.91 743.75
  C 341.97 750.89 341.00 762.27 339.90 769.74
  Q 336.18 794.95 334.58 807.73
  A 1.34 1.34 0.0 0 1 332.76 808.81
  Q 321.38 804.38 310.25 803.58
  C 302.63 803.03 293.51 802.93 284.08 804.33
  Q 281.97 804.64 272.21 805.92
  C 268.03 806.47 264.12 806.33 260.34 807.05
  Q 251.61 808.72 238.85 805.89
  Q 228.41 803.57 223.43 797.13
  A 1.60 1.53 21.9 0 1 223.14 796.49
  Q 222.79 794.82 223.55 792.30
  Q 224.78 788.25 226.24 784.32
  Q 227.01 782.26 228.66 776.24
  C 229.63 772.73 231.35 766.70 232.90 760.81
  Q 238.64 738.90 239.88 735.54
  Q 241.73 730.53 242.76 725.74
  C 243.79 720.97 244.19 718.75 245.68 713.40
  Q 249.35 700.21 250.64 693.26
  A 4.85 4.68 63.7 0 1 251.00 692.13
  Q 252.38 689.16 252.56 686.37
  A 2.34 2.30 63.5 0 1 252.94 685.20
  C 254.39 682.93 254.29 679.71 255.05 676.93
  Q 261.99 651.52 266.79 633.02
  Q 267.76 629.27 268.32 625.25
  C 268.82 621.65 269.94 618.80 270.43 614.91
  C 271.02 610.27 272.76 605.47 273.48 601.05
  C 274.90 592.29 276.16 583.61 278.26 575.13
  Q 279.49 570.19 279.97 566.32
  C 280.51 561.93 281.59 559.04 282.36 554.59
  Q 283.67 546.96 284.51 543.93
  A 5.16 4.76 56.7 0 0 284.69 542.84
  Q 284.91 538.82 285.79 536.11
  C 286.93 532.58 286.96 530.69 287.94 526.49
  Q 289.18 521.19 291.21 507.18
  C 291.98 501.85 293.10 497.17 293.85 492.70
  Q 294.56 488.50 294.94 486.89
  Q 297.48 476.03 300.90 458.18
  Q 303.62 443.96 308.27 427.33
  Q 310.41 419.65 312.98 414.04
  C 315.64 408.23 317.51 402.60 320.63 396.80
  Q 331.15 377.26 343.78 364.01
  Q 348.25 359.31 359.20 351.55
  Q 362.29 349.36 366.62 347.43
  C 370.27 345.81 376.36 342.36 381.78 341.35
  A 4.55 4.54 -61.7 0 0 382.71 341.07
  Q 385.43 339.90 386.23 339.71
  Q 388.46 339.15 398.59 337.36
  C 404.65 336.29 409.68 335.93 414.77 336.87
  Q 418.88 337.64 420.02 337.78
  Q 424.33 338.30 434.61 341.16
  A 4.40 4.27 67.7 0 1 435.69 341.63
  Q 438.01 343.03 440.07 343.43
  A 4.46 4.30 -26.1 0 1 441.03 343.74
  Q 446.47 346.21 448.35 346.81
  Q 451.28 347.76 454.16 349.61
  Q 464.77 356.40 473.11 365.36
  Q 478.22 370.84 486.71 383.49
  Q 493.17 393.12 497.08 405.17
  Q 500.15 414.65 501.47 418.01
  Q 503.10 422.13 505.39 431.03
  Q 505.76 432.45 506.14 434.07
  Q 507.43 439.67 508.70 447.53
  Q 510.66 459.71 510.94 461.02
  Q 513.59 473.78 514.11 477.07
  C 514.47 479.35 515.99 483.26 516.53 486.27
  Q 517.60 492.31 519.51 498.65
  Q 521.52 505.31 522.55 509.18
  Q 522.57 509.24 525.27 519.80
  C 526.80 525.77 530.24 533.33 532.29 539.14
  C 533.95 543.88 536.34 547.72 538.14 552.58
  C 541.21 560.92 544.11 569.43 548.70 576.08
  C 551.53 580.19 553.28 584.73 555.80 588.99
  C 560.06 596.19 563.07 602.12 566.95 607.76
  C 569.78 611.86 571.75 616.36 574.58 620.00
  Q 577.83 624.18 585.77 636.05
  C 591.02 643.90 598.75 653.36 604.89 663.29
  A 16.22 15.91 -81.9 0 0 606.44 665.40
  Q 613.40 673.36 615.24 676.50
  C 617.95 681.15 619.73 684.74 622.80 688.65
  Q 624.35 690.63 626.59 694.17
  Q 630.98 701.09 635.68 709.63
  C 638.03 713.90 640.64 716.81 642.88 720.99
  Q 653.77 741.36 658.78 752.88
  C 661.05 758.10 661.44 760.44 663.81 764.70
  C 665.07 766.97 665.53 770.26 666.67 773.57
  C 668.85 779.94 671.09 784.64 672.34 790.77
  C 673.22 795.11 675.43 802.12 675.39 808.29
  A 3.55 3.51 -35.2 0 1 675.19 809.40
  L 674.17 812.32
  A 1.21 1.18 -13.3 0 1 673.89 812.76
  Q 663.80 822.27 649.76 823.55
  A 1.20 0.94 -31.7 0 0 649.60 823.58
  L 646.43 824.53
  A 0.84 0.84 0.0 0 1 645.47 824.17
  C 642.43 819.24 639.10 814.50 636.43 809.48
  Q 631.56 800.33 626.74 791.29
  Q 623.41 785.04 620.22 780.06
  Q 615.93 773.35 613.90 768.71
  Q 612.51 765.55 610.64 762.66
  C 608.95 760.06 607.96 757.19 606.36 754.64
  Q 601.95 747.58 595.48 734.85
  C 594.33 732.58 592.19 729.91 591.17 727.84
  Q 587.35 720.12 582.48 713.40
  A 0.43 0.43 0.0 0 0 581.71 713.72
  C 582.06 716.09 582.28 718.75 582.97 721.39
  Q 585.61 731.58 587.40 739.42
  Q 588.64 744.89 592.14 757.34
  Q 595.48 769.24 599.10 784.22
  Q 600.76 791.13 602.03 795.33
  Q 603.11 798.94 603.74 802.81
  Q 604.39 806.77 605.27 810.31
  Q 607.86 820.76 611.61 833.91
  Q 613.58 840.83 614.17 844.12
  Q 614.28 844.74 615.05 846.29
  A 0.93 0.93 0.0 0 1 615.00 847.20
  Q 611.44 853.02 608.81 854.81
  Q 604.77 857.56 600.05 861.04
  Q 597.68 862.80 591.70 866.08
  A 6.03 5.77 21.5 0 1 590.50 866.57
  Q 584.77 868.24 584.23 868.46
  Q 580.16 870.15 578.16 870.71
  Q 572.61 872.28 566.80 873.33
  A 0.76 0.76 0.0 0 1 565.91 872.58
  C 565.92 871.17 565.12 870.16 564.46 868.69
  Q 557.17 852.50 552.84 841.93
  Q 549.49 833.77 546.62 827.43
  Q 540.25 813.37 534.26 799.63
  Q 528.15 785.60 522.27 771.57
  Q 520.41 767.13 517.44 760.57
  Q 514.96 755.09 512.27 747.31
  A 3.49 3.42 -74.5 0 0 511.68 746.24
  Q 509.93 744.05 509.89 741.71
  A 1.54 1.49 -58.9 0 0 509.74 741.05
  Q 506.34 733.64 497.31 713.22
  Q 494.75 707.45 492.75 702.19
  C 488.95 692.24 485.45 684.97 480.70 673.79
  C 479.74 671.54 479.75 668.66 478.32 666.55
  A 1.21 0.89 51.6 0 0 476.73 666.12
  Q 476.14 666.72 476.23 668.02
  C 476.43 671.02 477.28 672.81 477.96 675.55
  Q 486.39 709.64 492.30 738.88
  Q 493.85 746.56 494.91 750.14
  Q 495.54 752.27 497.87 764.68
  Q 497.94 765.09 498.20 765.54
  A 2.78 2.71 25.9 0 1 498.48 766.32
  C 499.82 773.04 501.81 779.52 503.22 786.02
  Q 506.89 802.97 508.23 809.96
  C 508.47 811.22 509.52 812.45 509.24 814.08
  Q 509.16 814.55 509.44 815.84
  Q 510.38 820.27 510.96 823.55
  Q 511.84 828.46 512.72 831.20
  Q 514.48 836.68 515.53 840.74
  C 516.26 843.58 516.27 845.39 517.61 847.91
  Z
  M 459.68 430.72
  Q 456.91 434.63 456.25 438.52
  Q 456.07 439.59 454.77 442.98
  A 2.51 2.48 53.4 0 0 454.61 444.10
  C 455.03 448.49 453.54 453.29 453.40 457.69
  Q 452.97 471.40 453.37 475.11
  Q 454.46 485.07 457.23 493.55
  C 458.51 497.48 463.77 507.65 469.05 507.96
  Q 472.93 508.19 474.46 506.97
  Q 477.86 504.25 480.02 499.54
  Q 482.12 494.97 482.78 492.87
  Q 486.72 480.34 486.69 465.28
  Q 486.65 448.94 482.63 436.08
  Q 480.13 428.07 476.27 423.49
  Q 471.48 417.81 465.52 422.20
  Q 461.41 425.23 459.95 430.18
  A 1.92 1.83 -19.7 0 1 459.68 430.72
  Z
  M 404.80 506.67
  C 407.88 508.79 412.78 508.43 415.10 505.58
  C 418.24 501.70 420.08 497.83 421.53 492.79
  Q 424.07 483.89 424.84 480.98
  A 16.08 15.66 -37.3 0 0 425.37 477.41
  Q 425.83 464.92 425.94 457.19
  C 426.00 453.48 424.75 450.99 424.61 447.04
  Q 424.49 443.86 422.64 438.34
  C 420.40 431.67 417.87 425.36 412.94 421.15
  A 2.07 2.07 0.0 0 0 411.92 420.66
  C 402.78 419.02 398.99 428.72 396.18 435.70
  C 395.17 438.21 394.92 441.12 394.29 443.17
  Q 393.89 444.44 393.50 448.88
  Q 392.15 464.14 393.43 478.86
  C 393.64 481.27 394.39 482.96 394.57 485.27
  Q 394.70 487.04 395.51 490.04
  Q 396.98 495.48 397.63 497.10
  C 398.94 500.33 402.19 504.89 404.80 506.67
  Z"
/>
<path fill="#e5e3d5" d="
  M 205.36 725.79
  A 0.77 0.77 0.0 0 1 203.84 725.84
  Q 202.46 718.08 200.22 709.08
  Q 199.68 706.90 199.26 703.60
  Q 199.04 701.89 198.00 698.66
  A 5.52 4.96 35.6 0 1 197.79 697.71
  Q 196.92 690.57 194.69 683.31
  C 194.18 681.63 194.21 679.23 193.70 677.19
  Q 190.31 663.67 188.20 652.55
  Q 188.14 652.26 187.63 651.29
  A 2.80 2.76 27.2 0 1 187.33 650.38
  C 186.12 641.92 184.09 633.41 182.48 624.13
  Q 179.49 606.96 175.33 590.03
  Q 175.17 589.39 174.59 587.96
  C 174.15 586.86 174.39 585.72 174.10 584.35
  Q 170.27 566.58 169.01 559.55
  Q 168.86 558.71 168.52 557.88
  C 168.17 556.99 168.42 556.00 168.22 555.05
  Q 165.63 542.35 163.65 532.04
  C 163.16 529.49 161.92 527.10 161.42 524.75
  Q 159.58 516.08 156.75 504.51
  Q 155.19 498.15 158.22 490.75
  A 5.70 5.58 -14.1 0 1 159.14 489.25
  Q 163.93 483.61 165.33 482.85
  Q 167.48 481.67 173.49 480.10
  A 1.70 1.32 30.5 0 1 173.89 480.05
  L 243.48 479.84
  A 0.68 0.68 0.0 0 1 244.16 480.50
  Q 244.31 485.51 243.27 489.28
  Q 242.66 491.50 242.79 492.77
  C 242.95 494.28 241.95 495.70 241.91 497.45
  Q 241.82 501.20 240.55 506.85
  Q 239.47 511.64 239.24 513.71
  C 238.78 517.68 237.71 520.93 237.39 524.61
  C 237.05 528.62 236.16 531.29 235.79 535.52
  Q 235.56 538.11 234.88 542.43
  Q 233.38 552.00 233.11 555.67
  C 232.88 558.81 231.76 561.78 231.35 564.63
  Q 229.64 576.34 228.02 586.08
  C 227.67 588.21 227.79 590.76 227.09 592.36
  A 2.40 2.31 -31.8 0 0 226.89 593.15
  C 226.67 595.84 226.62 597.78 226.24 600.23
  Q 224.47 611.68 221.80 625.61
  Q 220.42 632.81 219.75 638.50
  C 218.98 645.05 218.64 648.93 217.47 655.80
  Q 213.08 681.72 211.22 690.55
  Q 210.95 691.82 210.69 694.02
  C 210.16 698.53 209.34 702.86 208.59 708.56
  Q 208.28 710.93 207.49 712.83
  C 206.78 714.56 207.22 716.50 206.59 718.65
  Q 205.89 721.05 205.36 725.79
  Z"
/>
<path fill="#e5e3d5" d="
  M 415.94 864.59
  A 0.88 0.87 -4.7 0 1 416.96 865.45
  L 416.96 892.46
  A 0.90 0.88 9.1 0 0 417.58 893.30
  Q 425.73 895.94 438.45 898.87
  C 445.74 900.55 454.22 903.44 460.54 904.93
  Q 474.29 908.16 483.63 911.01
  Q 492.16 913.61 493.75 913.96
  C 500.80 915.53 507.64 917.58 515.61 919.23
  Q 523.23 920.81 527.24 922.06
  C 533.47 924.00 532.53 930.65 532.08 935.73
  A 2.02 2.02 0.0 0 1 530.07 937.58
  C 517.60 937.57 508.41 937.36 497.03 935.72
  C 479.46 933.18 460.42 931.53 444.81 929.20
  Q 433.46 927.50 417.54 924.84
  A 0.63 0.63 0.0 0 0 416.81 925.41
  Q 415.56 938.40 413.93 950.31
  C 413.06 956.63 411.27 961.07 404.52 961.06
  C 400.42 961.05 395.31 960.66 392.59 957.18
  Q 391.34 955.57 390.80 951.53
  Q 388.86 936.91 387.84 925.87
  A 1.14 1.13 83.3 0 0 386.55 924.85
  Q 373.43 926.82 364.77 928.37
  Q 352.24 930.60 343.84 931.39
  C 333.75 932.34 326.43 933.30 315.83 934.92
  Q 305.41 936.51 290.50 937.42
  Q 280.52 938.03 272.80 937.25
  A 0.80 0.79 87.5 0 1 272.10 936.60
  C 271.03 930.86 270.93 926.24 275.84 922.72
  A 3.32 3.32 0.0 0 1 276.68 922.30
  Q 281.20 920.82 283.76 920.24
  Q 293.20 918.12 312.44 913.52
  C 314.74 912.97 318.51 911.55 320.40 910.96
  Q 323.90 909.87 342.78 905.09
  Q 354.18 902.20 357.37 901.32
  C 365.38 899.11 371.72 897.78 379.37 896.15
  A 4.51 4.12 24.4 0 0 380.14 895.90
  Q 382.92 894.71 385.71 894.21
  A 1.12 1.11 -4.4 0 0 386.63 893.14
  Q 386.81 884.87 385.89 877.68
  Q 385.17 872.02 385.04 868.81
  Q 384.73 861.42 385.00 859.81
  A 0.65 0.64 31.2 0 1 386.15 859.53
  C 387.07 860.73 388.20 860.61 389.28 861.13
  Q 401.60 867.09 415.94 864.59
  Z"
/>
<ellipse fill="#e5e3d5" cx="0.00" cy="0.00" transform="translate(280.57,963.73) rotate(-94.8)" rx="22.56" ry="21.57"/>
<ellipse fill="#e5e3d5" cx="0.00" cy="0.00" transform="translate(523.63,963.73) rotate(-96.3)" rx="22.30" ry="21.59"/>
</svg>
